<mxfile host="app.diagrams.net" modified="2023-04-06T05:28:04.415Z" agent="Mozilla/5.0 (Windows NT 10.0; Win64; x64) AppleWebKit/537.36 (KHTML, like Gecko) Chrome/101.0.0.0 Safari/537.36" etag="QklmHSWdWWYT7aKqhDCv" version="21.1.4" type="github">
  <diagram name="第 1 页" id="nMrFyzyagL_IT3nECQT-">
    <mxGraphModel dx="1354" dy="635" grid="1" gridSize="10" guides="1" tooltips="1" connect="1" arrows="1" fold="1" page="1" pageScale="1" pageWidth="827" pageHeight="1169" math="0" shadow="0">
      <root>
        <mxCell id="0" />
        <mxCell id="1" parent="0" />
        <mxCell id="o0AZ1_j-_2XGow6rkjjk-3" value="" style="edgeStyle=orthogonalEdgeStyle;rounded=0;orthogonalLoop=1;jettySize=auto;html=1;" edge="1" parent="1" source="o0AZ1_j-_2XGow6rkjjk-1" target="o0AZ1_j-_2XGow6rkjjk-2">
          <mxGeometry relative="1" as="geometry" />
        </mxCell>
        <mxCell id="o0AZ1_j-_2XGow6rkjjk-1" value="开始" style="strokeWidth=2;html=1;shape=mxgraph.flowchart.start_1;whiteSpace=wrap;" vertex="1" parent="1">
          <mxGeometry x="230" y="130" width="100" height="60" as="geometry" />
        </mxCell>
        <mxCell id="o0AZ1_j-_2XGow6rkjjk-5" value="" style="edgeStyle=orthogonalEdgeStyle;rounded=0;orthogonalLoop=1;jettySize=auto;html=1;" edge="1" parent="1" source="o0AZ1_j-_2XGow6rkjjk-2" target="o0AZ1_j-_2XGow6rkjjk-4">
          <mxGeometry relative="1" as="geometry" />
        </mxCell>
        <mxCell id="o0AZ1_j-_2XGow6rkjjk-2" value="校验申请单状态&lt;br&gt;&lt;pre style=&quot;background-color: rgb(255, 255, 255); font-family: 宋体, monospace;&quot;&gt;&lt;font style=&quot;font-size: 11px;&quot;&gt;只有保存状态和&lt;/font&gt;&lt;/pre&gt;&lt;pre style=&quot;background-color: rgb(255, 255, 255); font-family: 宋体, monospace;&quot;&gt;审批拒绝状态下可以提交审核&lt;/pre&gt;" style="rounded=1;whiteSpace=wrap;html=1;absoluteArcSize=1;arcSize=14;strokeWidth=2;" vertex="1" parent="1">
          <mxGeometry x="160" y="230" width="240" height="100" as="geometry" />
        </mxCell>
        <mxCell id="o0AZ1_j-_2XGow6rkjjk-7" value="" style="edgeStyle=orthogonalEdgeStyle;rounded=0;orthogonalLoop=1;jettySize=auto;html=1;" edge="1" parent="1" source="o0AZ1_j-_2XGow6rkjjk-4" target="o0AZ1_j-_2XGow6rkjjk-6">
          <mxGeometry relative="1" as="geometry" />
        </mxCell>
        <mxCell id="o0AZ1_j-_2XGow6rkjjk-4" value="校验模板是否存在" style="rounded=1;whiteSpace=wrap;html=1;absoluteArcSize=1;arcSize=14;strokeWidth=2;" vertex="1" parent="1">
          <mxGeometry x="215" y="360" width="130" height="70" as="geometry" />
        </mxCell>
        <mxCell id="o0AZ1_j-_2XGow6rkjjk-9" value="" style="edgeStyle=orthogonalEdgeStyle;rounded=0;orthogonalLoop=1;jettySize=auto;html=1;" edge="1" parent="1" source="o0AZ1_j-_2XGow6rkjjk-6" target="o0AZ1_j-_2XGow6rkjjk-8">
          <mxGeometry relative="1" as="geometry" />
        </mxCell>
        <mxCell id="o0AZ1_j-_2XGow6rkjjk-6" value="发起审批工单" style="rounded=1;whiteSpace=wrap;html=1;absoluteArcSize=1;arcSize=14;strokeWidth=2;" vertex="1" parent="1">
          <mxGeometry x="180" y="470" width="200" height="50" as="geometry" />
        </mxCell>
        <mxCell id="o0AZ1_j-_2XGow6rkjjk-11" value="" style="edgeStyle=orthogonalEdgeStyle;rounded=0;orthogonalLoop=1;jettySize=auto;html=1;" edge="1" parent="1" source="o0AZ1_j-_2XGow6rkjjk-8" target="o0AZ1_j-_2XGow6rkjjk-10">
          <mxGeometry relative="1" as="geometry" />
        </mxCell>
        <mxCell id="o0AZ1_j-_2XGow6rkjjk-8" value="修改申请单状态为审批中" style="rounded=1;whiteSpace=wrap;html=1;absoluteArcSize=1;arcSize=14;strokeWidth=2;" vertex="1" parent="1">
          <mxGeometry x="220" y="555" width="120" height="60" as="geometry" />
        </mxCell>
        <mxCell id="o0AZ1_j-_2XGow6rkjjk-10" value="结束" style="strokeWidth=2;html=1;shape=mxgraph.flowchart.terminator;whiteSpace=wrap;" vertex="1" parent="1">
          <mxGeometry x="230" y="640" width="100" height="60" as="geometry" />
        </mxCell>
      </root>
    </mxGraphModel>
  </diagram>
</mxfile>
